# xmcd CD database file
#
# Track frame offsets:
#	150
#	19481
#	38641
#	55530
#	78871
#	102505
#	123542
#	140139
#	154424
#	174864
#	188013
#
# Disc length: 2754 seconds
#
# Revision: 2
# Processed by: cddbd v1.5.2PL0 Copyright (c) Steve Scherf et al.
# Submitted via: CDex 1.70beta2
#
DISCID=8d0ac00b
DTITLE=La Excelencia - Salsa con Conciencia
DYEAR=2006
DGENRE=Salsa
TTITLE0=La Lucha
TTITLE1=Solo Sin Amor
TTITLE2=Sentencia
TTITLE3=El Tiempo en tus Manos
TTITLE4=La Salsa Y El Guaguanco
TTITLE5=Estoy
TTITLE6=El Loco
TTITLE7=Cada Dia
TTITLE8=Hijo de los Rumberos
TTITLE9=Boogalu Pa' Colombia
TTITLE10=La Lucha (Featuring Shanny)
EXTD=YEAR: 2006
EXTT0=
EXTT1=
EXTT2=
EXTT3=
EXTT4=
EXTT5=
EXTT6=
EXTT7=
EXTT8=
EXTT9=
EXTT10=
PLAYORDER=
